<?xml version="1.0" encoding="UTF-8" standalone="no"?>
<!-- Created with Inkscape (http://www.inkscape.org/) -->

<svg
   version="1.1"
   id="svg2"
   width="1122.52"
   height="793.70667"
   viewBox="0 0 1122.52 793.70667"
   sodipodi:docname="books-6544763.ai"
   xmlns:inkscape="http://www.inkscape.org/namespaces/inkscape"
   xmlns:sodipodi="http://sodipodi.sourceforge.net/DTD/sodipodi-0.dtd"
   xmlns="http://www.w3.org/2000/svg"
   xmlns:svg="http://www.w3.org/2000/svg">
  <defs
     id="defs6">
    <clipPath
       clipPathUnits="userSpaceOnUse"
       id="clipPath20">
      <path
         d="M 0,595.28 H 841.89 V 0 H 0 Z"
         id="path18" />
    </clipPath>
  </defs>
  <sodipodi:namedview
     id="namedview4"
     pagecolor="#ffffff"
     bordercolor="#000000"
     borderopacity="0.25"
     inkscape:showpageshadow="2"
     inkscape:pageopacity="0.0"
     inkscape:pagecheckerboard="0"
     inkscape:deskcolor="#d1d1d1" />
  <g
     id="g8"
     inkscape:groupmode="layer"
     inkscape:label="books-6544763"
     transform="matrix(1.3333333,0,0,-1.3333333,0,793.70667)">
    <path
       d="m 166.108,370.229 h 252.027 v 14.792 H 166.108 Z"
       style="fill:#937171;fill-opacity:1;fill-rule:nonzero;stroke:none"
       id="path10" />
    <path
       d="m 166.108,276.687 h 249.131 v 14.792 H 166.108 Z"
       style="fill:#937171;fill-opacity:1;fill-rule:nonzero;stroke:none"
       id="path12" />
    <g
       id="g14">
      <g
         id="g16"
         clip-path="url(#clipPath20)">
        <g
           id="g22"
           transform="translate(456.9131,291.4795)">
          <path
             d="m 0,0 h -281.148 c 7.476,4.97 7.476,73.779 0,78.75 H 0 Z"
             style="fill:#e9d4be;fill-opacity:1;fill-rule:nonzero;stroke:none"
             id="path24" />
        </g>
        <g
           id="g26"
           transform="translate(456.9131,392.7856)">
          <path
             d="m 0,0 h -281.148 c 4.931,1.038 4.931,47.41 0,48.447 H 0 Z"
             style="fill:#e9d4be;fill-opacity:1;fill-rule:nonzero;stroke:none"
             id="path28" />
        </g>
        <g
           id="g30"
           transform="translate(743.585,276.6875)">
          <path
             d="m 0,0 h -344.943 c 8.429,2.047 8.429,106.495 0,108.333 H 0 C 8.43,106.495 8.43,2.047 0,0"
             style="fill:#bea399;fill-opacity:1;fill-rule:nonzero;stroke:none"
             id="path32" />
        </g>
        <path
           d="m 166.108,535.891 h 282.761 v 10.003 H 166.108 Z"
           style="fill:#d53e56;fill-opacity:1;fill-rule:nonzero;stroke:none"
           id="path34" />
        <path
           d="m 166.108,497.445 h 282.761 v 10.001 H 166.108 Z"
           style="fill:#d53e56;fill-opacity:1;fill-rule:nonzero;stroke:none"
           id="path36" />
        <path
           d="m 162.157,258.652 h 265.974 v 18.295 H 162.157 Z"
           style="fill:#97b2c5;fill-opacity:1;fill-rule:nonzero;stroke:none"
           id="path38" />
        <path
           d="m 162.157,126.194 h 278.366 v 18.305 H 162.157 Z"
           style="fill:#97b2c5;fill-opacity:1;fill-rule:nonzero;stroke:none"
           id="path40" />
        <g
           id="g42"
           transform="translate(476.1768,144.499)">
          <path
             d="m 0,0 h -304.28 c 4.642,2.436 4.642,111.707 0,114.153 H 0 Z"
             style="fill:#f2e2cd;fill-opacity:1;fill-rule:nonzero;stroke:none"
             id="path44" />
        </g>
        <g
           id="g46"
           transform="translate(678.3086,126.1944)">
          <path
             d="m 0,0 h -325.087 c 9.387,0 9.387,150.283 0,150.753 H 0 C 9.384,150.283 9.384,0 0,0"
             style="fill:#8f9cb5;fill-opacity:1;fill-rule:nonzero;stroke:none"
             id="path48" />
        </g>
        <g
           id="g50"
           transform="translate(451.332,507.4463)">
          <path
             d="m 0,0 h -281.148 c 7.476,1.796 7.476,26.65 0,28.445 H 0 Z"
             style="fill:#e9d4be;fill-opacity:1;fill-rule:nonzero;stroke:none"
             id="path52" />
        </g>
        <path
           d="m 166.108,487.444 h 282.761 v 10.001 H 166.108 Z"
           style="fill:#b25030;fill-opacity:1;fill-rule:nonzero;stroke:none"
           id="path54" />
        <path
           d="m 166.108,448.998 h 282.761 v 10 H 166.108 Z"
           style="fill:#b25030;fill-opacity:1;fill-rule:nonzero;stroke:none"
           id="path56" />
        <path
           d="m 166.108,438.997 h 282.761 v 10.001 H 166.108 Z"
           style="fill:#4e395c;fill-opacity:1;fill-rule:nonzero;stroke:none"
           id="path58" />
        <path
           d="m 166.108,385.021 h 282.761 v 10 H 166.108 Z"
           style="fill:#4e395c;fill-opacity:1;fill-rule:nonzero;stroke:none"
           id="path60" />
        <g
           id="g62"
           transform="translate(451.332,458.9976)">
          <path
             d="m 0,0 h -281.148 c 7.476,1.798 7.476,26.65 0,28.447 H 0 Z"
             style="fill:#e9d4be;fill-opacity:1;fill-rule:nonzero;stroke:none"
             id="path64" />
        </g>
        <g
           id="g66"
           transform="translate(659.2822,497.4453)">
          <path
             d="m 0,0 h -222.704 c 7.59,2.255 7.59,46.201 0,48.449 H 0 C 7.59,46.201 7.59,2.255 0,0"
             style="fill:#442e33;fill-opacity:1;fill-rule:nonzero;stroke:none"
             id="path68" />
        </g>
        <g
           id="g70"
           transform="translate(664.9043,448.998)">
          <path
             d="m 0,0 h -256.424 c 7.59,2.255 7.59,46.201 0,48.447 H 0 C 7.591,46.201 7.591,2.255 0,0"
             style="fill:#d17730;fill-opacity:1;fill-rule:nonzero;stroke:none"
             id="path72" />
        </g>
        <g
           id="g74"
           transform="translate(692.6895,385.0205)">
          <path
             d="m 0,0 h -294.047 c 7.927,0 7.927,63.778 0,63.978 H 0 C 7.929,63.778 7.929,0 0,0"
             style="fill:#6c5f84;fill-opacity:1;fill-rule:nonzero;stroke:none"
             id="path76" />
        </g>
        <path
           d="m 188.634,116.464 h 282.762 v 10.001 H 188.634 Z"
           style="fill:#1af414;fill-opacity:1;fill-rule:nonzero;stroke:none"
           id="path78" />
        <path
           d="m 188.634,62.486 h 282.762 v 10 H 188.634 Z"
           style="fill:#1af414;fill-opacity:1;fill-rule:nonzero;stroke:none"
           id="path80" />
        <g
           id="g82"
           transform="translate(522.4727,72.4863)">
          <path
             d="m 0,0 h -323.481 c 4.932,0.958 4.932,43.018 0,43.978 H 0 Z"
             style="fill:#e9d4be;fill-opacity:1;fill-rule:nonzero;stroke:none"
             id="path84" />
        </g>
        <g
           id="g86"
           transform="translate(738.8936,62.4863)">
          <path
             d="m 0,0 h -274.692 c 7.927,0 7.927,63.778 0,63.979 H 0 C 7.928,63.778 7.928,0 0,0"
             style="fill:#1af414;fill-opacity:1;fill-rule:nonzero;stroke:none"
             id="path88" />
        </g>
      </g>
    </g>
  </g>
</svg>
